<svg width="25" height="25" viewBox="0 0 25 25" fill="none" xmlns="http://www.w3.org/2000/svg">
<g opacity="0.7">
<path fill-rule="evenodd" clip-rule="evenodd" d="M12.5 0C5.59644 0 0 5.59644 0 12.5C0 19.4036 5.59644 25 12.5 25C19.4036 25 25 19.4036 25 12.5C25 5.59644 19.4036 0 12.5 0ZM12.1519 10.5927L12.1256 10.1602C12.0469 9.03914 12.7377 8.0152 13.8306 7.61798C14.2328 7.47674 14.9148 7.45909 15.3607 7.58267C15.5356 7.63563 15.8678 7.81217 16.1039 7.97106L16.5323 8.26236L17.0045 8.1123C17.2668 8.03285 17.6165 7.90044 17.7739 7.81217C17.9226 7.73273 18.0537 7.68859 18.0537 7.71508C18.0537 7.86514 17.7302 8.37711 17.4592 8.65958C17.0919 9.0568 17.1969 9.0921 17.94 8.82729C18.386 8.67723 18.3947 8.67723 18.3073 8.84494C18.2548 8.93322 17.9838 9.24216 17.6952 9.52463C17.2056 10.0101 17.1794 10.0631 17.1794 10.4691C17.1794 11.0959 16.8821 12.4023 16.5848 13.1173C16.034 14.459 14.8536 15.8448 13.6732 16.5422C12.012 17.522 9.79986 17.7691 7.93749 17.1954C7.31671 17.0012 6.25 16.5069 6.25 16.4186C6.25 16.3921 6.57351 16.3568 6.96697 16.348C7.78885 16.3303 8.61074 16.1008 9.31022 15.6948L9.78237 15.4123L9.24027 15.2269C8.47085 14.9621 7.78011 14.3531 7.60524 13.7793C7.55278 13.5939 7.57027 13.5851 8.0599 13.5851L8.56703 13.5763L8.13859 13.3732C7.63147 13.1173 7.16807 12.6847 6.94074 12.2434C6.77461 11.9256 6.56477 11.1223 6.62597 11.0605C6.64346 11.0341 6.82707 11.087 7.03691 11.1576C7.64021 11.3783 7.71891 11.3254 7.36917 10.9546C6.71341 10.2838 6.5123 9.2863 6.82707 8.3418L6.97571 7.9181L7.55278 8.49186C8.73315 9.64821 10.1234 10.3367 11.7147 10.5397L12.1519 10.5927Z" fill="white"/>
</g>
</svg>
