<svg width="19" height="27" viewBox="0 0 19 27" fill="none" xmlns="http://www.w3.org/2000/svg">
<path fill-rule="evenodd" clip-rule="evenodd" d="M1.38667 3.76834L11.6606 1.01545C12.3455 0.831922 12.9336 1.20015 13.0838 1.76082L18.4733 21.8746C18.6235 22.4353 18.2984 23.0482 17.6134 23.2317L7.3395 25.9846C6.73068 26.1478 6.0665 25.7999 5.91628 25.2393L0.526797 5.12546C0.376568 4.5648 0.77784 3.93148 1.38667 3.76834ZM2.77333 4.07282C2.92553 4.03204 3.1153 4.13142 3.15285 4.27158C3.19041 4.41175 3.07576 4.5927 2.92356 4.63348C2.69525 4.69466 2.50548 4.59528 2.46792 4.45511C2.43037 4.31494 2.54502 4.13399 2.77333 4.07282ZM10.9243 22.6204L12.9029 22.0902C13.0552 22.0495 13.1688 22.1692 13.2064 22.3094L13.4317 23.1504C13.4693 23.2906 13.4307 23.4511 13.2785 23.4919L11.2998 24.0221C11.1476 24.0629 10.9579 23.9635 10.9203 23.8233L10.695 22.9823C10.6574 22.8422 10.7721 22.6612 10.9243 22.6204ZM5.39839 3.51966L8.06201 2.80595C8.29032 2.74478 8.38421 3.09519 8.1559 3.15637L5.49229 3.87008C5.34008 3.91086 5.24619 3.56045 5.39839 3.51966ZM1.85317 6.42259L12.6598 3.52695L17.1667 20.3469L6.36005 23.2425L1.85317 6.42259Z" fill="black"/>
</svg>
