<svg width="25" height="25" viewBox="0 0 25 25" fill="none" xmlns="http://www.w3.org/2000/svg">
<g opacity="0.7">
<path fill-rule="evenodd" clip-rule="evenodd" d="M12.5 0C5.59644 0 0 5.59644 0 12.5C0 19.4036 5.59644 25 12.5 25C19.4036 25 25 19.4036 25 12.5C25 5.59644 19.4036 0 12.5 0ZM6.00082 10.353H8.83359V18.8643H6.00082V10.353ZM9.02021 7.72016C9.00182 6.88563 8.40505 6.25 7.43597 6.25C6.4669 6.25 5.83335 6.88563 5.83335 7.72016C5.83335 8.5374 6.44817 9.19133 7.3992 9.19133H7.41731C8.40505 9.19133 9.02021 8.5374 9.02021 7.72016ZM15.788 10.1532C17.6521 10.1532 19.0496 11.3699 19.0496 13.9842L19.0495 18.8643H16.2169V14.3108C16.2169 13.167 15.8069 12.3866 14.7815 12.3866C13.9988 12.3866 13.5327 12.9127 13.328 13.4209C13.2531 13.603 13.2347 13.8568 13.2347 14.1112V18.8646H10.4016C10.4016 18.8646 10.4389 11.1519 10.4016 10.3533H13.2347V11.5588C13.6107 10.9793 14.284 10.1532 15.788 10.1532Z" fill="white"/>
</g>
</svg>
