<svg width="25" height="25" viewBox="0 0 25 25" fill="none" xmlns="http://www.w3.org/2000/svg">
<g opacity="0.7">
<path fill-rule="evenodd" clip-rule="evenodd" d="M12.5 0C5.59644 0 0 5.59644 0 12.5C0 19.4036 5.59644 25 12.5 25C19.4036 25 25 19.4036 25 12.5C25 5.59644 19.4036 0 12.5 0ZM9.75166 5.87362C10.4628 5.84126 10.69 5.83335 12.5006 5.83335H12.4985C14.3096 5.83335 14.536 5.84126 15.2471 5.87362C15.9569 5.90612 16.4416 6.01849 16.8666 6.18335C17.3055 6.35349 17.6763 6.58127 18.0472 6.95211C18.418 7.32267 18.6458 7.69461 18.8166 8.13309C18.9805 8.55698 19.093 9.04143 19.1263 9.75116C19.1583 10.4623 19.1666 10.6895 19.1666 12.5001C19.1666 14.3107 19.1583 14.5373 19.1263 15.2484C19.093 15.9579 18.9805 16.4425 18.8166 16.8665C18.6458 17.3049 18.418 17.6768 18.0472 18.0474C17.6767 18.4182 17.3053 18.6465 16.867 18.8168C16.4428 18.9817 15.9578 19.094 15.2481 19.1265C14.537 19.1589 14.3105 19.1668 12.4997 19.1668C10.6893 19.1668 10.4622 19.1589 9.7511 19.1265C9.04151 19.094 8.55692 18.9817 8.13275 18.8168C7.69455 18.6465 7.3226 18.4182 6.95218 18.0474C6.58148 17.6768 6.3537 17.3049 6.18328 16.8664C6.01856 16.4425 5.9062 15.958 5.87356 15.2483C5.84134 14.5372 5.83328 14.3107 5.83328 12.5001C5.83328 10.6895 5.84161 10.4621 5.87342 9.75102C5.90536 9.04157 6.01787 8.55698 6.18315 8.13295C6.35398 7.69461 6.58176 7.32267 6.9526 6.95211C7.32316 6.58141 7.69511 6.35363 8.13358 6.18335C8.55748 6.01849 9.04193 5.90612 9.75166 5.87362Z" fill="white"/>
<path fill-rule="evenodd" clip-rule="evenodd" d="M11.9025 7.03487C12.0187 7.03469 12.1436 7.03474 12.2784 7.0348L12.5006 7.03487C14.2806 7.03487 14.4916 7.04126 15.1945 7.0732C15.8445 7.10293 16.1973 7.21154 16.4323 7.30279C16.7434 7.42362 16.9652 7.56807 17.1984 7.80141C17.4318 8.03474 17.5762 8.25697 17.6973 8.56808C17.7886 8.80281 17.8973 9.15559 17.9269 9.80559C17.9588 10.5084 17.9658 10.7195 17.9658 12.4987C17.9658 14.2779 17.9588 14.489 17.9269 15.1918C17.8972 15.8418 17.7886 16.1945 17.6973 16.4293C17.5765 16.7404 17.4318 16.9619 17.1984 17.1951C16.9651 17.4285 16.7436 17.5729 16.4323 17.6937C16.1976 17.7854 15.8445 17.8937 15.1945 17.9235C14.4917 17.9554 14.2806 17.9623 12.5006 17.9623C10.7204 17.9623 10.5095 17.9554 9.80668 17.9235C9.15667 17.8935 8.80389 17.7848 8.56875 17.6936C8.25764 17.5728 8.03541 17.4283 7.80208 17.195C7.56874 16.9616 7.42429 16.74 7.30318 16.4287C7.21193 16.194 7.10318 15.8412 7.0736 15.1912C7.04165 14.4884 7.03526 14.2773 7.03526 12.497C7.03526 10.7167 7.04165 10.5067 7.0736 9.80393C7.10332 9.15392 7.21193 8.80114 7.30318 8.56614C7.42402 8.25502 7.56874 8.0328 7.80208 7.79946C8.03541 7.56613 8.25764 7.42168 8.56875 7.30057C8.80375 7.2089 9.15667 7.10056 9.80668 7.0707C10.4217 7.04293 10.66 7.03459 11.9025 7.0332V7.03487ZM16.0592 8.14186C15.6176 8.14186 15.2592 8.49978 15.2592 8.94159C15.2592 9.38326 15.6176 9.74159 16.0592 9.74159C16.5009 9.74159 16.8593 9.38326 16.8593 8.94159C16.8593 8.49992 16.5009 8.14158 16.0592 8.14158V8.14186ZM9.07699 12.5002C9.07699 10.6095 10.6099 9.0766 12.5005 9.07653C14.3912 9.07653 15.9237 10.6095 15.9237 12.5002C15.9237 14.3909 14.3914 15.9231 12.5006 15.9231C10.6099 15.9231 9.07699 14.3909 9.07699 12.5002Z" fill="white"/>
<path d="M12.5007 10.2778C13.7279 10.2778 14.7229 11.2727 14.7229 12.5001C14.7229 13.7273 13.7279 14.7223 12.5007 14.7223C11.2733 14.7223 10.2784 13.7273 10.2784 12.5001C10.2784 11.2727 11.2733 10.2778 12.5007 10.2778Z" fill="white"/>
</g>
</svg>
