<svg width="15" height="16" viewBox="0 0 15 16" fill="none" xmlns="http://www.w3.org/2000/svg">
<path d="M6.22235 2.98254C6.11973 2.17261 4.39607 0.0724902 3.62418 0.00816862C3.19236 -0.0184825 2.76204 0.0802694 2.38505 0.292532C1.65706 0.676036 0.771808 1.31844 0.434832 1.88906C-0.796501 3.97315 0.652282 7.73753 3.95809 11.0433C6.47591 13.561 9.25931 15.0016 11.3642 15.0014C11.9755 15.0165 12.5795 14.8663 13.1125 14.5666C13.6833 14.2294 14.3257 13.3442 14.7092 12.6164C14.9213 12.2394 15.02 11.8092 14.9935 11.3774C14.9291 10.6054 12.8291 8.88176 12.019 8.77922C11.8248 8.7545 11.2336 8.68017 9.46813 10.2349C9.44584 10.2542 9.4175 10.265 9.38804 10.2656C9.35857 10.2662 9.32983 10.2564 9.3068 10.2381C8.46951 9.56663 7.67143 8.84771 6.91649 8.08484C6.15359 7.33003 5.43467 6.53202 4.7633 5.69474C4.74486 5.67178 4.73507 5.64307 4.73563 5.61363C4.7362 5.58419 4.74709 5.55588 4.76639 5.53365C6.32173 3.76759 6.2469 3.17665 6.22235 2.98254ZM4.11014 6.21119C4.80154 7.07384 5.54195 7.89602 6.32773 8.67367C7.10547 9.45944 7.92772 10.1999 8.79042 10.8913C8.96635 11.0306 9.1856 11.1038 9.40996 11.0981C9.63431 11.0924 9.84956 11.0082 10.0182 10.8601C11.2282 9.79456 11.8009 9.59444 11.9144 9.60525C12.3742 9.66347 14.0207 11.0235 14.1648 11.4608C14.1733 11.7296 14.1066 11.9953 13.9724 12.2282C13.6021 12.9311 13.0384 13.6433 12.689 13.8497C11.2425 14.7045 7.89737 13.8048 4.54683 10.4545C1.19663 7.10422 0.297077 3.75912 1.15175 2.31256C1.35813 1.9633 2.07033 1.3996 2.77311 1.02928C2.98568 0.90886 3.22436 0.841991 3.46854 0.834443C3.49277 0.834443 3.51684 0.835256 3.54061 0.836883C3.97792 0.980896 5.33793 2.62742 5.39615 3.08703C5.4085 3.20421 5.20699 3.77344 4.14154 4.98329C3.99326 5.15185 3.90889 5.36713 3.90316 5.59155C3.89742 5.81597 3.97068 6.03527 4.11014 6.21119Z" fill="#F2F2F2"/>
<path d="M14.5832 7.06466C14.5919 7.06466 14.6005 7.06441 14.6093 7.06384C14.6638 7.06047 14.7172 7.04639 14.7663 7.0224C14.8155 6.99841 14.8594 6.96497 14.8956 6.92401C14.9318 6.88304 14.9595 6.83535 14.9773 6.78365C14.9951 6.73195 15.0025 6.67726 14.9991 6.62269C14.8909 4.90195 14.1585 3.27983 12.9393 2.06068C11.7201 0.841528 10.098 0.109124 8.37727 0.000877614C8.3226 -0.00267766 8.26776 0.00459195 8.21591 0.0222697C8.16405 0.0399475 8.1162 0.0676858 8.07508 0.103895C8.03397 0.140103 8.00041 0.18407 7.97632 0.233276C7.95223 0.282481 7.93809 0.335957 7.93471 0.390637C7.93133 0.445318 7.93877 0.500128 7.95661 0.551926C7.97446 0.603724 8.00235 0.651492 8.03869 0.69249C8.07503 0.733488 8.1191 0.766911 8.16838 0.790843C8.21766 0.814775 8.27118 0.828745 8.32587 0.831952C9.84398 0.927453 11.2751 1.5736 12.3507 2.64917C13.4263 3.72474 14.0725 5.15582 14.168 6.67393C14.1746 6.77965 14.2211 6.8789 14.2983 6.95149C14.3754 7.02408 14.4773 7.06454 14.5832 7.06466Z" fill="#F2F2F2"/>
<path d="M8.38852 2.00685C8.334 2.00188 8.27904 2.0077 8.22677 2.02399C8.17451 2.04028 8.12597 2.06672 8.08394 2.10179C8.0419 2.13685 8.0072 2.17987 7.9818 2.22837C7.95641 2.27686 7.94083 2.32989 7.93595 2.38442C7.93108 2.43894 7.937 2.49389 7.95339 2.54613C7.96977 2.59836 7.99629 2.64685 8.03144 2.68882C8.06658 2.73079 8.10966 2.76542 8.1582 2.79073C8.20675 2.81604 8.2598 2.83152 8.31434 2.8363C9.30581 2.92352 10.2349 3.35701 10.9387 4.06075C11.6426 4.76449 12.0762 5.69354 12.1635 6.685C12.1727 6.78858 12.2203 6.88499 12.2969 6.95526C12.3736 7.02552 12.4738 7.06455 12.5778 7.06466C12.5901 7.06466 12.6025 7.06418 12.615 7.06304C12.6695 7.05822 12.7224 7.04272 12.7709 7.01743C12.8194 6.99213 12.8624 6.95754 12.8975 6.91562C12.9326 6.87371 12.9591 6.82529 12.9755 6.77313C12.9919 6.72097 12.9978 6.6661 12.993 6.61164C12.8885 5.42554 12.3699 4.31406 11.528 3.47208C10.6861 2.6301 9.57461 2.11137 8.38852 2.00685Z" fill="#F2F2F2"/>
<path d="M8.28675 4.84465C8.75602 4.91804 9.18986 5.13857 9.52572 5.47444C9.86157 5.8103 10.0821 6.24415 10.1555 6.71343C10.1729 6.82234 10.2328 6.91989 10.3221 6.98466C10.4114 7.04943 10.5228 7.07612 10.6317 7.05889C10.7407 7.04166 10.8383 6.9819 10.9033 6.89274C10.9682 6.80358 10.9951 6.69229 10.9781 6.58331C10.8775 5.94016 10.5752 5.34557 10.1149 4.88528C9.6546 4.42498 9.05999 4.12277 8.41684 4.0222C8.30777 4.00495 8.19632 4.03173 8.10701 4.09666C8.01769 4.16158 7.95782 4.25932 7.94057 4.36838C7.92332 4.47745 7.9501 4.5889 8.01502 4.67821C8.07994 4.76753 8.17769 4.8274 8.28675 4.84465Z" fill="#F2F2F2"/>
</svg>
