<svg width="17" height="13" viewBox="0 0 17 13" fill="none" xmlns="http://www.w3.org/2000/svg">
<path fill-rule="evenodd" clip-rule="evenodd" d="M15.5161 11.1693C15.5161 11.6776 15.1091 12.0874 14.608 12.0874H1.82086C1.31978 12.0874 0.912714 11.6776 0.912714 11.1693V2.05307C0.912714 1.97184 0.939183 1.89974 0.95835 1.82581L7.89132 8.75878C8.07022 8.93767 8.35863 8.93767 8.53753 8.75878L15.4705 1.82581C15.4897 1.89974 15.5161 1.97184 15.5161 2.05307V11.1693ZM14.608 1.13488C14.6856 1.13488 14.7549 1.16044 14.8261 1.17961L8.21443 7.7913L1.60273 1.17961C1.67483 1.16044 1.74328 1.13488 1.82086 1.13488H14.608ZM14.608 0.222168H1.82086C0.815053 0.222168 0 1.04179 0 2.05307V11.1693C0 12.1815 0.815053 13.0002 1.82086 13.0002H14.608C15.6138 13.0002 16.4289 12.1805 16.4289 11.1693V2.05307C16.4289 1.04087 15.6138 0.222168 14.608 0.222168Z" fill="#F2F2F2"/>
</svg>
